<svg xmlns="http://www.w3.org/2000/svg" width="24" height="24" fill="none" viewBox="0 0 24 24">
    <path fill="#000" d="M17.207 4.949c-.31-.208-.714-.184-1.017.034-.558.402-.517 1.253.02 1.682.982.786 1.823 1.78 2.29 2.906.65 1.57.94 3.287.5 4.929-.44 1.642-.964 2.465-2.313 3.5-1.348 1.035-2.862 1.767-4.562 1.767-1.7 0-3.214-.732-4.563-1.767-1.348-1.035-2.13-1.858-2.57-3.5-.44-1.642-.142-3.43.508-5 .492-1.187 1.399-2.185 2.448-2.969.491-.367.558-1.109.09-1.504-.285-.241-.693-.28-1.003-.073-1.487 1-2.651 2.418-3.34 4.082-.77 1.856-.904 3.913-.384 5.853s1.665 3.655 3.26 4.878c1.593 1.223 3.545 1.886 5.554 1.886 2.009 0 3.961-.663 5.555-1.886 1.594-1.223 2.74-2.937 3.26-4.878.519-1.94.384-3.997-.385-5.853-.69-1.667-1.857-3.087-3.348-4.087z"/>
    <path fill="#000" d="M11.423 3c0-.552.448-1 1-1s1 .448 1 1v7.463c0 .552-.448 1-1 1s-1-.448-1-1V3z"/>
</svg>
