<svg width="17" height="17" viewBox="0 0 17 17" fill="none" xmlns="http://www.w3.org/2000/svg">
    <path fill-rule="none" clip-rule="none" d="M5.05965 0.595C6.27612 0.2822 7.56724 0 8.34052 0C9.11262 0 10.4049 0.2822 11.6214 0.595C12.7064 0.878078 13.7844 1.18605 14.8544 1.51867C15.4702 1.70907 15.9344 2.22473 16.0243 2.86053C16.6926 7.61713 15.1425 11.1418 13.2636 13.4742C12.4629 14.4752 11.5122 15.3538 10.4434 16.0809C10.0717 16.3338 9.67886 16.556 9.26891 16.745C8.954 16.8855 8.6181 17 8.34052 17C8.06293 17 7.72703 16.8855 7.41212 16.745C7.00208 16.5562 6.60919 16.334 6.23764 16.0809C5.16922 15.3537 4.21899 14.4751 3.41863 13.4742C1.53735 11.1418 -0.0115223 7.61713 0.656781 2.86053C0.701464 2.55235 0.83505 2.26276 1.04208 2.02528C1.2491 1.78781 1.52111 1.61216 1.8266 1.51867C2.89664 1.18606 3.97463 0.878086 5.05965 0.595Z" fill="#224BDD"/>
</svg>

