<svg xmlns="http://www.w3.org/2000/svg" width="16" height="20" fill="none" viewBox="0 0 24 24">
    <path fill="#11215F" fill-rule="none" d="M7.525 2.7C9 2.332 10.563 2 11.5 2c.935 0 2.5.332 3.975.7 1.314.333 2.62.695 3.916 1.087.746.224 1.309.83 1.417 1.578.81 5.596-1.068 9.743-3.344 12.487-.97 1.178-2.122 2.211-3.416 3.067-.45.297-.927.559-1.423.781-.382.165-.789.3-1.125.3-.336 0-.743-.135-1.125-.3-.496-.222-.972-.483-1.422-.781-1.295-.856-2.446-1.89-3.415-3.067-2.28-2.744-4.156-6.89-3.346-12.487.054-.362.216-.703.466-.982.251-.28.58-.486.95-.596 1.297-.392 2.603-.754 3.917-1.087z" clip-rule="evenodd"/>
</svg>
