<svg xmlns="http://www.w3.org/2000/svg" width="24" height="24" fill="none" viewBox="0 0 24 24">
    <path fill="#847A80" d="M22 5.5c0-.387-.313-.7-.7-.7h-2.082C18.878 3.19 17.52 2 15.893 2c-1.629 0-2.986 1.19-3.325 2.8H3.7c-.387 0-.7.313-.7.7 0 .387.313.7.7.7h8.868c.34 1.61 1.696 2.8 3.325 2.8 1.628 0 2.986-1.19 3.325-2.8H21.3c.387 0 .7-.313.7-.7zm-6.107 2.1c-1.154 0-2.036-.91-2.036-2.1s.882-2.1 2.036-2.1c1.153 0 2.036.91 2.036 2.1s-.883 2.1-2.036 2.1zM3 11.5c0 .387.313.7.7.7h2.082c.34 1.61 1.697 2.8 3.325 2.8 1.629 0 2.986-1.19 3.325-2.8H21.3c.387 0 .7-.313.7-.7 0-.387-.313-.7-.7-.7h-8.868C12.092 9.19 10.736 8 9.107 8 7.48 8 6.121 9.19 5.782 10.8H3.7c-.387 0-.7.313-.7.7zm6.107-2.1c1.154 0 2.036.91 2.036 2.1s-.882 2.1-2.036 2.1c-1.153 0-2.036-.91-2.036-2.1s.883-2.1 2.036-2.1zM22 17.5c0 .387-.313.7-.7.7h-2.082c-.34 1.61-1.697 2.8-3.325 2.8-1.629 0-2.986-1.19-3.325-2.8H3.7c-.387 0-.7-.313-.7-.7 0-.387.313-.7.7-.7h8.868c.34-1.61 1.696-2.8 3.325-2.8 1.628 0 2.986 1.19 3.325 2.8H21.3c.387 0 .7.313.7.7zm-6.107-2.1c-1.154 0-2.036.91-2.036 2.1s.882 2.1 2.036 2.1c1.153 0 2.036-.91 2.036-2.1s-.883-2.1-2.036-2.1z"/>
    <path fill="#fff" d="M0 0v-1h-1v1h1zm24 0h1v-1h-1v1zm0 24v1h1v-1h-1zM0 24h-1v1h1v-1zM0 1h24v-2H0v2zm23-1v24h2V0h-2zm1 23H0v2h24v-2zM1 24V0h-2v24h2z"/>
</svg>
