<svg xmlns="http://www.w3.org/2000/svg" width="24" height="24" fill="none" viewBox="0 0 24 24">
    <path fill="#847A80" d="M21.978 20.978c.289-.288.29-.756.002-1.045l-5.069-5.095c1.336-1.612 2-3.677 1.854-5.765-.147-2.089-1.092-4.04-2.64-5.45-1.548-1.41-3.58-2.17-5.673-2.12-2.093.048-4.087.901-5.567 2.382-1.48 1.48-2.334 3.474-2.383 5.567-.049 2.094.71 4.125 2.12 5.673 1.41 1.548 3.362 2.493 5.45 2.64 2.09.146 4.154-.518 5.766-1.854l5.095 5.069c.29.287.757.287 1.045-.002zM3.995 9.657c0-1.318.39-2.606 1.122-3.702.732-1.095 1.773-1.949 2.99-2.453 1.218-.504 2.557-.636 3.85-.38 1.292.258 2.479.892 3.41 1.824.932.932 1.566 2.119 1.823 3.41.258 1.293.126 2.633-.379 3.85-.504 1.217-1.358 2.258-2.453 2.99-1.096.732-2.384 1.123-3.701 1.123-1.767 0-3.462-.702-4.711-1.952-1.25-1.25-1.951-2.944-1.951-4.71z"/>
</svg>
