<svg xmlns="http://www.w3.org/2000/svg" width="118" height="125" fill="none" viewBox="0 0 118 125">
    <g clip-path="url(#prefix__clip0)" filter="url(#prefix__filter0_d)">
        <mask id="prefix__a" width="108" height="108" x="5" y="17" maskUnits="userSpaceOnUse">
            <path fill="#fff" d="M59 125c29.622 0 53.636-23.985 53.636-53.571 0-29.587-24.014-53.572-53.636-53.572-29.623 0-53.636 23.985-53.636 53.572C5.364 101.015 29.377 125 59 125z"/>
        </mask>
        <g mask="url(#prefix__a)">
            <path fill="#E6E6E6" d="M59 125c29.622 0 53.636-23.985 53.636-53.571 0-29.587-24.014-53.572-53.636-53.572-29.623 0-53.636 23.985-53.636 53.572C5.364 101.015 29.377 125 59 125z"/>
            <path fill="#65C9FF" d="M112.636 17.857H5.364V125h107.272V17.857z"/>
        </g>
        <mask id="prefix__b" width="118" height="125" x="0" y="0" maskUnits="userSpaceOnUse">
            <path fill="#fff" d="M5.364 71.429C5.364 101.015 29.378 125 59 125c29.623 0 53.636-23.985 53.636-53.571H118V0H0v71.429h5.364z"/>
        </mask>
        <g mask="url(#prefix__b)">
            <mask id="prefix__c" width="90" height="109" x="14" y="16" maskUnits="userSpaceOnUse">
                <path fill="#fff" d="M69.727 80.63v8.21h1.788c17.774 0 32.182 14.39 32.182 32.142V125H14.303v-4.018c0-17.752 14.408-32.143 32.182-32.143h1.788v-8.21c-7.705-3.655-13.243-11.126-14.167-19.968-2.604-.367-4.606-2.602-4.606-5.304v-6.25c0-2.654 1.933-4.858 4.47-5.283v-2.753c0-13.807 11.206-25 25.03-25 13.824 0 25.03 11.193 25.03 25v2.753c2.537.425 4.47 2.629 4.47 5.283v6.25c0 2.702-2.003 4.937-4.606 5.304-.924 8.842-6.462 16.313-14.167 19.969z"/>
            </mask>
            <g mask="url(#prefix__c)">
                <path fill="#D0C6AC" d="M69.727 80.63v8.21h1.788c17.774 0 32.182 14.39 32.182 32.142V125H14.303v-4.018c0-17.752 14.408-32.143 32.182-32.143h1.788v-8.21c-7.705-3.655-13.243-11.126-14.167-19.968-2.604-.367-4.606-2.602-4.606-5.304v-6.25c0-2.654 1.933-4.858 4.47-5.283v-2.753c0-13.807 11.206-25 25.03-25 13.824 0 25.03 11.193 25.03 25v2.753c2.537.425 4.47 2.629 4.47 5.283v6.25c0 2.702-2.003 4.937-4.606 5.304-.924 8.842-6.462 16.313-14.167 19.969z"/>
                <path fill="#D08B5B" d="M118 16.071H0V125h118V16.071z"/>
                <path fill="#000" fill-opacity=".1" fill-rule="evenodd" d="M84.03 51.34v10.267c0 13.807-11.206 25-25.03 25-13.824 0-25.03-11.193-25.03-25V51.34v6.697c0 13.807 11.206 25 25.03 25 13.824 0 25.03-11.193 25.03-25v-6.697z" clip-rule="evenodd"/>
            </g>
            <mask id="prefix__d" width="90" height="37" x="14" y="88" maskUnits="userSpaceOnUse">
                <path fill="#fff" fill-rule="evenodd" d="M74.18 88.97c16.526 1.354 29.517 15.179 29.517 32.035V125H14.303v-3.995c0-17.008 13.227-30.931 29.967-32.068-.013.167-.02.335-.02.504 0 5.296 6.704 9.59 14.973 9.59 8.27 0 14.974-4.294 14.974-9.59 0-.158-.006-.314-.018-.47z" clip-rule="evenodd"/>
            </mask>
            <g mask="url(#prefix__d)">
                <path fill="#E6E6E6" fill-rule="evenodd" d="M74.18 88.97c16.526 1.354 29.517 15.179 29.517 32.035V125H14.303v-3.995c0-17.008 13.227-30.931 29.967-32.068-.013.167-.02.335-.02.504 0 5.296 6.704 9.59 14.973 9.59 8.27 0 14.974-4.294 14.974-9.59 0-.158-.006-.314-.018-.47z" clip-rule="evenodd"/>
                <path fill="#262E33" d="M118 75.893H0V125h118V75.893z"/>
                <path fill="#000" fill-opacity=".16" d="M59.224 102.126c9.784 0 17.715-5.38 17.715-12.016 0-6.635-7.931-12.015-17.715-12.015-9.785 0-17.716 5.38-17.716 12.016 0 6.635 7.931 12.015 17.715 12.015z" opacity=".6"/>
            </g>
            <path fill="#3A4C5A" fill-rule="evenodd" d="M45.048 88.894c-17.107.75-30.745 14.84-30.745 32.111V125h31.003c-1.52-5.393-2.397-11.737-2.397-18.527 0-6.396.778-12.397 2.139-17.58zM73.14 125h30.556v-3.995c0-17.118-13.398-31.11-30.292-32.088 1.357 5.177 2.133 11.17 2.133 17.556 0 6.79-.877 13.134-2.397 18.527z" clip-rule="evenodd"/>
            <path fill="#E6E6E6" fill-rule="evenodd" d="M80.901 114.286l4.272-3.2c.644-.483 1.534-.475 2.17.019l2.945 2.288-9.387.893z" clip-rule="evenodd"/>
            <path fill="#2F4351" fill-rule="evenodd" d="M45.144 88.393c-1.788 8.63-1.043 20.833 2.235 36.607h-7.152l-6.257-16.071 2.681-4.018-2.681-2.679 8.492-13.393c.906-.281 1.8-.43 2.682-.446zM72.856 88.393c1.788 8.63 1.043 20.833-2.235 36.607h7.152l6.257-16.071-2.681-4.018 2.681-2.679-8.492-13.393c-.906-.281-1.8-.43-2.682-.446z" clip-rule="evenodd"/>
            <mask id="prefix__e" width="18" height="10" x="50" y="65" maskUnits="userSpaceOnUse">
                <path fill="#fff" fill-rule="evenodd" d="M50.56 66.575c.473 4.237 4.071 7.532 8.44 7.532 4.382 0 7.99-3.315 8.444-7.571.037-.343-.346-.911-.826-.911H51.44c-.482 0-.927.526-.88.95z" clip-rule="evenodd"/>
            </mask>
            <g mask="url(#prefix__e)">
                <path fill="#000" fill-opacity=".7" fill-rule="evenodd" d="M50.56 66.575c.473 4.237 4.071 7.532 8.44 7.532 4.382 0 7.99-3.315 8.444-7.571.037-.343-.346-.911-.826-.911H51.44c-.482 0-.927.526-.88.95z" clip-rule="evenodd"/>
                <path fill="#fff" d="M63.917 60.714H54.53c-1.235 0-2.235 1-2.235 2.232v2.679c0 1.233 1 2.232 2.235 2.232h9.386c1.234 0 2.235-1 2.235-2.232v-2.679c0-1.232-1-2.232-2.235-2.232z"/>
                <path fill="#FF4F6D" d="M56.765 80.357c2.716 0 4.917-2.198 4.917-4.91 0-2.713-2.201-4.911-4.917-4.911-2.715 0-4.916 2.198-4.916 4.91 0 2.713 2.2 4.911 4.916 4.911z"/>
                <path fill="#FF4F6D" d="M61.235 80.357c2.715 0 4.917-2.198 4.917-4.91 0-2.713-2.202-4.911-4.917-4.911s-4.917 2.198-4.917 4.91c0 2.713 2.202 4.911 4.917 4.911z"/>
            </g>
            <path fill="#000" fill-opacity=".16" fill-rule="evenodd" d="M53.636 58.036c0 1.972 2.402 3.571 5.364 3.571 2.962 0 5.364-1.599 5.364-3.571" clip-rule="evenodd"/>
            <path fill="#fff" d="M70.621 55.357c2.963 0 5.364-2.398 5.364-5.357s-2.401-5.357-5.364-5.357c-2.962 0-5.363 2.398-5.363 5.357s2.401 5.357 5.363 5.357z"/>
            <path fill="#000" fill-opacity=".7" d="M70.621 52.679c1.481 0 2.682-1.2 2.682-2.679 0-1.48-1.2-2.679-2.682-2.679-1.48 0-2.681 1.2-2.681 2.679 0 1.48 1.2 2.679 2.681 2.679z"/>
            <path fill="#000" fill-opacity=".6" fill-rule="evenodd" d="M41.193 51.539c.825-1.696 2.684-2.878 4.844-2.878 2.153 0 4.005 1.174 4.835 2.86.247.501-.104.91-.458.607-1.096-.94-2.651-1.528-4.377-1.528-1.672 0-3.184.551-4.273 1.44-.398.326-.813-.005-.571-.501z" clip-rule="evenodd"/>
            <path fill="#000" fill-opacity=".6" d="M41.11 44.254c.669-4.252 6.295-7.152 10.365-5.28.448.206.979.01 1.185-.438.207-.448.01-.978-.438-1.184-5.134-2.362-12.023 1.19-12.878 6.625-.076.487.257.944.745 1.02.487.077.945-.256 1.021-.743zM76.89 44.254c-.668-4.252-6.295-7.152-10.364-5.28-.449.206-.98.01-1.186-.438-.207-.448-.01-.978.438-1.184 5.134-2.362 12.024 1.19 12.878 6.625.077.487-.257.944-.744 1.02-.488.077-.946-.256-1.022-.743z"/>
            <mask id="prefix__f" width="118" height="125" x="0" y="0" maskUnits="userSpaceOnUse">
                <path fill="#fff" d="M118 0H0v125h118V0z"/>
            </mask>
            <g mask="url(#prefix__f)">
                <path fill="#1F3540" fill-rule="evenodd" d="M84.03 43.722v.102c2.305.386 4.11 2.24 4.422 4.566 1.143-1.297 1.836-3 1.836-4.863 0-.951-.18-1.86-.509-2.694 1.415-1.342 2.297-3.24 2.297-5.342 0-2.605-1.354-4.895-3.398-6.204.459-.96.716-2.036.716-3.17 0-3.41-2.318-6.277-5.465-7.118.067-.445.101-.901.101-1.365 0-5.055-4.102-9.152-9.163-9.152-1.175 0-2.298.221-3.33.624-1.668-2.273-4.36-3.749-7.397-3.749-1.905 0-3.674.58-5.14 1.575-1.466-.994-3.235-1.575-5.14-1.575-3.037 0-5.73 1.476-7.396 3.749-1.033-.403-2.156-.624-3.331-.624-5.061 0-9.163 4.098-9.163 9.152 0 .464.034.92.101 1.365-3.147.841-5.465 3.709-5.465 7.117 0 .979.191 1.912.538 2.767-2.437 1.202-4.114 3.71-4.114 6.608 0 2.428 1.176 4.581 2.99 5.923-.2.67-.308 1.378-.308 2.113 0 1.864.693 3.566 1.836 4.863.311-2.326 2.117-4.18 4.422-4.566v-.102l.037.028C35.304 22.702 55.67 30.242 59 18.454c3.329 11.788 23.696 4.248 24.993 25.296l.037-.028zM48.273 80.63v1.875c-.365.056-.738.084-1.118.084-3.049 0-5.665-1.847-6.788-4.483-3.826-.272-6.844-3.457-6.844-7.347 0-.657.086-1.293.247-1.9-2.993-.937-5.164-3.73-5.164-7.029 0-1.671.557-3.213 1.497-4.449.777 1.49 2.234 2.57 3.96 2.828.78 9.039 6.374 16.703 14.21 20.42zm21.454 0v1.875c.365.056.738.084 1.118.084 3.048 0 5.665-1.847 6.788-4.483 3.826-.272 6.844-3.457 6.844-7.347 0-.657-.086-1.293-.247-1.9 2.993-.937 5.164-3.73 5.164-7.029 0-1.671-.558-3.213-1.497-4.449-.777 1.49-2.234 2.57-3.96 2.828-.78 9.039-6.374 16.703-14.21 20.42z" clip-rule="evenodd"/>
                <g filter="url(#prefix__filter1_d)" opacity=".9">
                    <path fill="#5DD362" d="M79.576 26.313s-2.227 3.943 2.413 5.63c3.033 1.101 6.03-.525 6.03-.525s-.963-4.424-4.451-5.691c-2.73-.992-3.992.586-3.992.586z" opacity=".9"/>
                    <path fill="#42BC53" d="M88.019 31.418s-.964-4.424-4.452-5.691c-1.82-.662-2.994-.172-3.585.224-.606-1.069-.658-1.868-.647-1.898.013-.131-.086-.235-.208-.28-.03-.01-.09-.032-.132-.014-.174.005-.3.163-.294.335-.002.101.155 2.025 2.067 3.942 2.702 2.951 7.25 3.382 7.25 3.382z" opacity=".9"/>
                </g>
                <g fill-rule="evenodd" clip-rule="evenodd" filter="url(#prefix__filter2_d)">
                    <path fill="#5DD362" d="M73.85 12.05c2.361-1.361 3.303-4.998 3.303-4.998s-3.296-1.864-6.82-.193c-3.524 1.67-2.844 4.63-2.844 4.63s2.955 2.525 6.361.561z"/>
                    <path fill="#42BC53" d="M65.705 13.137c.022.038.045.077.106.093.189.149.488.131.637-.058.469-.528.921-.995 1.457-1.407.879.628 3.274 1.825 5.945.285 2.36-1.361 3.303-4.998 3.303-4.998s-.515.09-1.385.282c-.238.035-6.426 1.024-9.993 5.298-.133.128-.16.35-.07.505z"/>
                </g>
                <g fill-rule="evenodd" clip-rule="evenodd" filter="url(#prefix__filter3_d)">
                    <path fill="#5DD362" d="M39.955 24.33c-2.36 1.36-3.303 4.998-3.303 4.998s3.297 1.863 6.82.193c3.524-1.671 2.845-4.631 2.845-4.631s-2.956-2.524-6.362-.56z"/>
                    <path fill="#42BC53" d="M48.1 23.243c-.022-.039-.044-.077-.105-.094-.19-.148-.489-.13-.638.058-.469.529-.921.996-1.457 1.408-.879-.628-3.274-1.825-5.945-.285-2.36 1.36-3.303 4.998-3.303 4.998s.515-.09 1.385-.283c.238-.034 6.427-1.024 9.994-5.298.132-.128.159-.35.07-.504z"/>
                </g>
                <g filter="url(#prefix__filter4_d)">
                    <path fill="#4ACAD3" d="M30.204 22.302c-.373-.495-.532-1.106-.445-1.72.086-.615.407-1.158.902-1.531.134-.1.31-.183.51-.254-.202-.063-.381-.14-.518-.235-1.05-.734-1.306-2.185-.57-3.233.734-1.049 2.186-1.304 3.236-.57.137.096.27.237.4.406-.003-.212.014-.405.063-.565.182-.593.584-1.08 1.132-1.371.548-.291 1.177-.352 1.77-.17 1.226.374 1.918 1.674 1.544 2.898-.049.16-.14.328-.26.502.2-.068.388-.109.554-.111 1.282-.023 2.343 1 2.365 2.28.009.508-.147.982-.419 1.37-.413.587-1.092.978-1.864.992-.167.003-.356-.032-.559-.092.126.169.224.335.278.492.251.73.116 1.5-.296 2.09-.272.387-.664.696-1.145.86-1.212.418-2.537-.228-2.954-1.439-.054-.157-.08-.347-.085-.558-.123.172-.25.316-.383.416-.496.373-1.108.53-1.723.444-.615-.086-1.16-.406-1.533-.901z"/>
                    <path fill="#fff" fill-rule="evenodd" d="M36.125 16.803c.104-.34-.088-.7-.429-.805-.34-.104-.702.088-.806.429-.104.34.104 1.866.104 1.866s1.026-1.149 1.13-1.49zm1.002 2.589c.357-.007.64-.3.634-.656-.006-.357-.3-.64-.656-.634-.357.006-1.746.676-1.746.676s1.412.62 1.768.614zm-2.707-.901s-.777-1.33-1.07-1.535c-.292-.205-.694-.134-.899.158-.204.292-.133.694.159.898.292.204 1.81.479 1.81.479zm1.373 3.052c.337-.116.516-.482.4-.82-.116-.336-1.182-1.449-1.182-1.449s-.155 1.533-.039 1.87c.117.336.484.515.821.4zm-2.377-.875c.284-.214 1.014-1.571 1.014-1.571s-1.507.327-1.792.541c-.284.214-.341.619-.127.903.215.285.62.341.904.127z" clip-rule="evenodd"/>
                </g>
                <g filter="url(#prefix__filter5_d)">
                    <path fill="#FDB599" d="M52.084 21.919l.115-1.033 1.034-.116c1.273-.143 2.284-.945 2.706-2.148.477-1.358.03-2.838-1.138-3.697l-.838-.616.417-.952c.549-1.253.288-2.632-.68-3.6-.968-.966-2.349-1.227-3.604-.678l-.953.416-.617-.837c-.86-1.164-2.342-1.612-3.702-1.137-1.203.422-2.007 1.432-2.15 2.703l-.115 1.033-1.034.116c-1.273.142-2.285.945-2.707 2.147-.419 1.195-.133 2.483.746 3.36.12.12.252.234.392.337l.838.616-.417.953c-.548 1.253-.287 2.632.68 3.599.969.967 2.35 1.227 3.604.68l.954-.417.617.837c.857 1.165 2.342 1.612 3.702 1.137 1.204-.422 2.007-1.432 2.15-2.703z"/>
                    <path fill="#fff" fill-rule="evenodd" d="M48.667 18.389c.092.343-.112.695-.455.787-.344.092-.697-.112-.789-.454-.091-.343-.044-2.65-.044-2.65s-1.114 2.021-1.365 2.272c-.252.251-.66.251-.91 0-.252-.25-.252-.658 0-.909.25-.25 2.275-1.364 2.275-1.364s-2.31.048-2.654-.044c-.343-.092-.547-.445-.455-.787.092-.343.445-.547.789-.455.343.092 2.32 1.286 2.32 1.286s-1.196-1.974-1.288-2.317c-.092-.343.112-.695.455-.787.343-.092.696.111.788.454.092.343.045 2.65.045 2.65s1.114-2.021 1.365-2.272c.252-.251.66-.251.91 0 .252.25.252.658 0 .909-.25.25-2.275 1.363-2.275 1.363s2.31-.047 2.653.045c.343.092.547.444.455.787-.092.343-.445.547-.788.455-.343-.092-2.32-1.287-2.32-1.287s1.196 1.974 1.288 2.318z" clip-rule="evenodd"/>
                </g>
                <g filter="url(#prefix__filter6_d)">
                    <path fill="#F7D30C" d="M84.816 24.92c.531-.704.756-1.574.634-2.447-.123-.874-.58-1.648-1.285-2.179-.19-.143-.441-.26-.726-.36.288-.09.543-.2.738-.336 1.494-1.044 1.859-3.108.812-4.6-1.046-1.493-3.112-1.856-4.606-.812-.195.137-.385.339-.568.579.004-.302-.021-.578-.091-.805-.258-.844-.83-1.537-1.61-1.951-.78-.415-1.675-.5-2.52-.243-1.745.533-2.73 2.383-2.197 4.125.07.227.2.467.37.714-.284-.096-.552-.154-.789-.158-1.823-.032-3.333 1.424-3.365 3.246-.012.723.21 1.396.596 1.948.588.837 1.554 1.393 2.654 1.412.237.004.506-.045.794-.13-.18.24-.317.476-.395.7-.358 1.039-.166 2.136.422 2.974.386.551.944.99 1.629 1.225 1.724.593 3.61-.326 4.204-2.048.077-.224.114-.495.12-.795.175.245.357.45.546.592.706.53 1.576.755 2.451.633.876-.123 1.65-.579 2.182-1.283z"/>
                    <path fill="#fff" fill-rule="evenodd" d="M76.39 17.096c-.148-.485.125-.998.61-1.146.486-.148 1 .125 1.147.61.149.484-.147 2.656-.147 2.656s-1.462-1.635-1.61-2.12zm-1.426 3.683c-.508-.009-.912-.427-.903-.933.01-.507.427-.91.935-.902.507.01 2.484.961 2.484.961s-2.009.883-2.516.874zm3.853-1.282s1.105-1.893 1.521-2.184c.416-.291.989-.19 1.28.225.29.415.19.987-.226 1.278-.416.29-2.575.681-2.575.681zm-1.955 4.344c-.48-.165-.734-.687-.57-1.166.166-.48 1.684-2.063 1.684-2.063s.22 2.181.054 2.66c-.165.48-.688.734-1.168.57zm3.384-1.245c-.406-.305-1.444-2.236-1.444-2.236s2.144.465 2.55.77c.405.305.486.88.18 1.285-.305.405-.881.486-1.286.18z" clip-rule="evenodd"/>
                </g>
                <g filter="url(#prefix__filter7_d)">
                    <path fill="#FF7398" d="M75.152 14.083c.816-3.117-2.679-5.542-4.002-6.332.23-1.31.748-5.608-1.996-7.195-2.729-1.578-6.166.984-7.204 1.852-.09-.056-.194-.12-.314-.189-1.37-.792-4.813-2.389-7.173-.105-2.523 2.442-1.034 6.252-.467 7.455-.965.897-3.748 3.835-2.6 6.96.315.86.898 1.542 1.735 2.026 1.801 1.041 4.294.873 5.24.762.443.84 1.711 2.996 3.525 4.045.746.431 1.509.63 2.266.591 3.087-.16 4.433-4.462 4.77-5.764 1.278-.177 5.402-.982 6.22-4.106z"/>
                    <path fill="#fff" fill-rule="evenodd" d="M63.364 11.43s1.647 3.655.158 3.889c-1.49.232-.653-3.836-.653-3.836s-3.178 2.682-3.642 1.352c-.465-1.33 3.442-1.807 3.442-1.807s-3.57-2.095-2.411-3.052c1.16-.957 2.778 2.72 2.778 2.72s.87-3.982 2.155-3.24c1.285.744-1.724 3.488-1.724 3.488s3.968-.442 3.74 1.05c-.225 1.492-3.843-.564-3.843-.564z" clip-rule="evenodd"/>
                </g>
                <path fill="#E6E6E6" d="M85.818 58.036c0-.247-.2-.447-.447-.447s-.447.2-.447.447v16.518c0 .246.2.446.447.446s.447-.2.447-.446V58.036z"/>
                <path fill="#9177FF" d="M89.84 74.107h-4.214l2.874-7.59h-4.917l-2.682 9.376h3.86l-2.072 8.482 7.152-10.268z"/>
                <g fill="#D6EAF2" fill-rule="evenodd" clip-rule="evenodd" filter="url(#prefix__filter8_d)">
                    <path d="M51.513 44.766c1.06.01 1.56.186 1.742 1.29.182 1.118.005 2.376-.206 3.477-.322 1.682-.858 3.33-2.105 4.56-.656.647-1.457 1.164-2.309 1.516-.452.187-.93.322-1.408.425-.14.03-1.331.194-.6.11-1.706.195-3.557.187-4.982-.897-1.579-1.202-2.66-3.104-3.136-4.999-.278-1.108-.862-3.76.206-4.646 1.223-1.015 12.798-.836 12.798-.836zm-10.741-3.03c-2.432.085-4.055.511-5.254 2.938-2.198 4.447 1.564 11.116 5.76 12.933 4.907 2.125 10.388-.227 12.982-4.48 1.374-2.251 2.068-5.661 2.023-8.26-.056-3.315-2.375-3.407-5.101-3.334l-10.41.204zM66.456 44.765c-1.06.01-1.562.186-1.742 1.29-.183 1.118-.005 2.376.206 3.477.322 1.682.857 3.33 2.104 4.56.657.647 1.458 1.163 2.31 1.516.452.187.93.322 1.407.425.14.03 1.332.194.6.11 1.707.195 3.558.187 4.982-.898 1.58-1.201 2.66-3.103 3.136-4.998.278-1.108.863-3.76-.205-4.646-1.224-1.015-12.798-.836-12.798-.836zm10.74-3.03c2.433.084 4.055.511 5.255 2.938 2.198 4.447-1.564 11.115-5.761 12.933-4.906 2.125-10.388-.227-12.982-4.48-1.373-2.251-2.068-5.661-2.023-8.26.057-3.315 2.376-3.407 5.102-3.334l10.41.204z"/>
                    <path d="M36.74 43.717c-1.526.086-3.268.106-4.697.765-1.513.697-1.746 2.276.16 2.494.86.098 1.72-.064 2.565-.215.693-.123 1.634-.083 2.289-.348 1.22-.492 1.141-2.78-.318-2.696zM81.23 43.717c1.525.086 3.267.106 4.696.765 1.513.697 1.747 2.276-.16 2.494-.86.098-1.72-.064-2.565-.215-.693-.123-1.634-.083-2.288-.348-1.22-.492-1.142-2.78.317-2.696zM63.519 44.648c-.87-1.026-3.137-1.62-4.568-1.62-1.43 0-3.63.594-4.5 1.62-.439.518-.454 1.21.306 1.535.947.405 1.792-.328 2.55-.712.97-.49 2.458-.436 3.355 0 .764.372 1.603 1.117 2.55.713.76-.325.745-1.018.306-1.535z"/>
                </g>
            </g>
        </g>
    </g>
    <defs>
        <filter id="prefix__filter0_d" width="126" height="133" x="-4" y="0" color-interpolation-filters="sRGB" filterUnits="userSpaceOnUse">
            <feFlood flood-opacity="0" result="BackgroundImageFix"/>
            <feColorMatrix in="SourceAlpha" values="0 0 0 0 0 0 0 0 0 0 0 0 0 0 0 0 0 0 127 0"/>
            <feOffset dy="4"/>
            <feGaussianBlur stdDeviation="2"/>
            <feColorMatrix values="0 0 0 0 0 0 0 0 0 0 0 0 0 0 0 0 0 0 0.25 0"/>
            <feBlend in2="BackgroundImageFix" result="effect1_dropShadow"/>
            <feBlend in="SourceGraphic" in2="effect1_dropShadow" result="shape"/>
        </filter>
        <filter id="prefix__filter1_d" width="17.318" height="16.573" x="74.701" y="21.752" color-interpolation-filters="sRGB" filterUnits="userSpaceOnUse">
            <feFlood flood-opacity="0" result="BackgroundImageFix"/>
            <feColorMatrix in="SourceAlpha" values="0 0 0 0 0 0 0 0 0 0 0 0 0 0 0 0 0 0 127 0"/>
            <feOffset dy="2"/>
            <feGaussianBlur stdDeviation="2"/>
            <feColorMatrix values="0 0 0 0 0 0 0 0 0 0 0 0 0 0 0 0 0 0 0.2 0"/>
            <feBlend in2="BackgroundImageFix" result="effect1_dropShadow"/>
            <feBlend in="SourceGraphic" in2="effect1_dropShadow" result="shape"/>
        </filter>
        <filter id="prefix__filter2_d" width="19.5" height="15.166" x="61.653" y="4.163" color-interpolation-filters="sRGB" filterUnits="userSpaceOnUse">
            <feFlood flood-opacity="0" result="BackgroundImageFix"/>
            <feColorMatrix in="SourceAlpha" values="0 0 0 0 0 0 0 0 0 0 0 0 0 0 0 0 0 0 127 0"/>
            <feOffset dy="2"/>
            <feGaussianBlur stdDeviation="2"/>
            <feColorMatrix values="0 0 0 0 0 0 0 0 0 0 0 0 0 0 0 0 0 0 0.2 0"/>
            <feBlend in2="BackgroundImageFix" result="effect1_dropShadow"/>
            <feBlend in="SourceGraphic" in2="effect1_dropShadow" result="shape"/>
        </filter>
        <filter id="prefix__filter3_d" width="19.5" height="15.166" x="32.652" y="21.05" color-interpolation-filters="sRGB" filterUnits="userSpaceOnUse">
            <feFlood flood-opacity="0" result="BackgroundImageFix"/>
            <feColorMatrix in="SourceAlpha" values="0 0 0 0 0 0 0 0 0 0 0 0 0 0 0 0 0 0 127 0"/>
            <feOffset dy="2"/>
            <feGaussianBlur stdDeviation="2"/>
            <feColorMatrix values="0 0 0 0 0 0 0 0 0 0 0 0 0 0 0 0 0 0 0.2 0"/>
            <feBlend in2="BackgroundImageFix" result="effect1_dropShadow"/>
            <feBlend in="SourceGraphic" in2="effect1_dropShadow" result="shape"/>
        </filter>
        <filter id="prefix__filter4_d" width="19.225" height="19.512" x="25.663" y="10.956" color-interpolation-filters="sRGB" filterUnits="userSpaceOnUse">
            <feFlood flood-opacity="0" result="BackgroundImageFix"/>
            <feColorMatrix in="SourceAlpha" values="0 0 0 0 0 0 0 0 0 0 0 0 0 0 0 0 0 0 127 0"/>
            <feOffset dy="2"/>
            <feGaussianBlur stdDeviation="2"/>
            <feColorMatrix values="0 0 0 0 0 0 0 0 0 0 0 0 0 0 0 0 0 0 0.2 0"/>
            <feBlend in2="BackgroundImageFix" result="effect1_dropShadow"/>
            <feBlend in="SourceGraphic" in2="effect1_dropShadow" result="shape"/>
        </filter>
        <filter id="prefix__filter5_d" width="25.499" height="25.475" x="34.628" y="5.334" color-interpolation-filters="sRGB" filterUnits="userSpaceOnUse">
            <feFlood flood-opacity="0" result="BackgroundImageFix"/>
            <feColorMatrix in="SourceAlpha" values="0 0 0 0 0 0 0 0 0 0 0 0 0 0 0 0 0 0 127 0"/>
            <feOffset dy="2"/>
            <feGaussianBlur stdDeviation="2"/>
            <feColorMatrix values="0 0 0 0 0 0 0 0 0 0 0 0 0 0 0 0 0 0 0.2 0"/>
            <feBlend in2="BackgroundImageFix" result="effect1_dropShadow"/>
            <feBlend in="SourceGraphic" in2="effect1_dropShadow" result="shape"/>
        </filter>
        <filter id="prefix__filter6_d" width="23.974" height="24.382" x="65.612" y="9.621" color-interpolation-filters="sRGB" filterUnits="userSpaceOnUse">
            <feFlood flood-opacity="0" result="BackgroundImageFix"/>
            <feColorMatrix in="SourceAlpha" values="0 0 0 0 0 0 0 0 0 0 0 0 0 0 0 0 0 0 127 0"/>
            <feOffset dy="2"/>
            <feGaussianBlur stdDeviation="2"/>
            <feColorMatrix values="0 0 0 0 0 0 0 0 0 0 0 0 0 0 0 0 0 0 0.2 0"/>
            <feBlend in2="BackgroundImageFix" result="effect1_dropShadow"/>
            <feBlend in="SourceGraphic" in2="effect1_dropShadow" result="shape"/>
        </filter>
        <filter id="prefix__filter7_d" width="32.151" height="31.905" x="47.123" y="-1.947" color-interpolation-filters="sRGB" filterUnits="userSpaceOnUse">
            <feFlood flood-opacity="0" result="BackgroundImageFix"/>
            <feColorMatrix in="SourceAlpha" values="0 0 0 0 0 0 0 0 0 0 0 0 0 0 0 0 0 0 127 0"/>
            <feOffset dy="2"/>
            <feGaussianBlur stdDeviation="2"/>
            <feColorMatrix values="0 0 0 0 0 0 0 0 0 0 0 0 0 0 0 0 0 0 0.2 0"/>
            <feBlend in2="BackgroundImageFix" result="effect1_dropShadow"/>
            <feBlend in="SourceGraphic" in2="effect1_dropShadow" result="shape"/>
        </filter>
        <filter id="prefix__filter8_d" width="64.288" height="24.884" x="26.841" y="39.518" color-interpolation-filters="sRGB" filterUnits="userSpaceOnUse">
            <feFlood flood-opacity="0" result="BackgroundImageFix"/>
            <feColorMatrix in="SourceAlpha" values="0 0 0 0 0 0 0 0 0 0 0 0 0 0 0 0 0 0 127 0"/>
            <feOffset dy="2"/>
            <feGaussianBlur stdDeviation="2"/>
            <feColorMatrix values="0 0 0 0 0 0 0 0 0 0 0 0 0 0 0 0 0 0 0.2 0"/>
            <feBlend in2="BackgroundImageFix" result="effect1_dropShadow"/>
            <feBlend in="SourceGraphic" in2="effect1_dropShadow" result="shape"/>
        </filter>
        <clipPath id="prefix__clip0">
            <path fill="#fff" d="M0 0H118V125H0z"/>
        </clipPath>
    </defs>
</svg>
