<svg xmlns="http://www.w3.org/2000/svg" width="144" height="144" fill="none" viewBox="0 0 119 140">
    <g clip-path="url(#prefix__clip0)">
        <path fill="#BEC3FF" d="M10.84 98.888v31h107.501v-8.5c1.2-22.8-3.834-28.834-6.5-29l-30.5-11.5-2.5-13c9.2-8.8 9.166-16 8-18.5.333-2.834.8-12.4 0-28s-13.334-13.834-19.5-11c-.8-12.4-21-11.167-31-9v9h-6c2.8 12.4 10.833 12.5 14.5 11l-4.5 34 9 12.5v11l-22.5 7c-16.8 5.6-17.667 11-16 13z"/>
        <path fill="#000" d="M108 135H94.5v-15.75H90V135H22.5v-15.75H18V135H4.5v-30.03c.001-1.28.399-2.528 1.138-3.573.74-1.045 1.784-1.835 2.99-2.262L21 94.769l-1.498-4.244-12.37 4.366c-2.084.738-3.888 2.103-5.165 3.908C.689 100.604.002 102.759 0 104.97v32.28c0 .597.237 1.169.659 1.591.422.422.994.659 1.591.659h108c.597 0 1.169-.237 1.591-.659.422-.422.659-.994.659-1.591v-18H108V135z"/>
        <path fill="#000" d="M105.369 94.891l-29.043-10.25c-.203-.497-.58-.904-1.058-1.148-.48-.243-1.03-.306-1.552-.177L70.763 72.98l9.469-8.286c.241-.21.434-.471.567-.763.132-.292.201-.61.201-.93v-4.5c0-.45-.135-.89-.387-1.261-.252-.373-.61-.661-1.027-.828l-.836-.334V54h3.938c1.342-.002 2.628-.535 3.578-1.484.949-.95 1.482-2.236 1.484-3.578v-7.876c-.002-1.342-.535-2.628-1.484-3.578-.95-.949-2.236-1.482-3.579-1.484H78.75v-5.356c.692-.462 1.26-1.088 1.652-1.822.392-.733.598-1.552.598-2.384V22.5c-.004-3.58-1.428-7.01-3.959-9.541C74.511 10.428 71.08 9.004 67.5 9h-9v.06c-3.45-2.946-7.838-4.563-12.375-4.56H27c-.597 0-1.169.237-1.591.659-.422.422-.659.994-.659 1.591v5.625c0 .376.014.75.036 1.125H22.5c-.597 0-1.169.237-1.591.659-.422.422-.659.994-.659 1.591.005 3.786 1.372 7.443 3.85 10.305 2.479 2.862 5.904 4.736 9.65 5.282V36h-3.938c-1.342.002-2.628.535-3.578 1.484-.949.95-1.482 2.236-1.484 3.578v7.876c.002 1.342.535 2.628 1.485 3.578.949.949 2.235 1.482 3.578 1.484h3.937v2.077l-.836.334c-.417.167-.775.455-1.027.828-.252.372-.387.811-.387 1.261V63c0 .32.069.638.201.93.133.292.326.552.567.763l9.47 8.286-2.954 10.337c-.521-.129-1.072-.066-1.551.177-.48.244-.855.65-1.059 1.148l-12.172 4.296 1.498 4.244 9.962-3.516-1.694 13.556c-.05.396.007.797.164 1.163.157.367.408.685.728.922.32.238.697.386 1.094.43.396.044.796-.019 1.16-.18l9.081-4.036 8.243 16.486c.187.373.474.688.83.907.355.22.765.336 1.183.336.417 0 .827-.116 1.182-.336.356-.219.643-.534.83-.907l8.243-16.486 9.08 4.036c.365.161.766.224 1.162.18.396-.044.773-.192 1.093-.43.32-.237.571-.555.728-.922.157-.366.213-.767.164-1.163L77.04 89.665l26.833 9.47c1.207.428 2.251 1.218 2.99 2.263.739 1.044 1.136 2.292 1.138 3.572v9.78h4.5v-9.78c-.002-2.211-.689-4.366-1.966-6.171-1.277-1.805-3.081-3.17-5.165-3.908zM78.75 40.5h3.938c.149 0 .292.06.397.165.106.105.165.248.165.398v7.874c0 .15-.06.293-.165.398-.105.106-.248.165-.397.165H78.75v-9zm-45 9h-3.938c-.149 0-.292-.06-.397-.165-.106-.105-.165-.248-.165-.398v-7.874c0-.15.06-.293.165-.398.105-.106.248-.165.398-.165h3.937v9zm33.75-36c2.386.003 4.674.952 6.361 2.639 1.687 1.687 2.636 3.975 2.639 6.361v3.938c0 .149-.06.292-.165.397-.105.106-.248.165-.397.165H65.25v-3.375c.003-3.582-1.006-7.092-2.91-10.125h5.16zm-.338 37.94l-10.076-4.03c-.536-.214-1.134-.214-1.67 0l-10.078 4.03-7.088-5.315V31.5h36v14.625l-7.088 5.316zm7.088.31v2.527l-2.197-.88 2.197-1.647zm-33.803 1.648l-2.197.879V51.75l2.197 1.648zM29.25 9h16.875c3.877.004 7.595 1.547 10.337 4.288 2.741 2.742 4.284 6.46 4.288 10.337V27h-4.663c-.546-3.746-2.42-7.171-5.282-9.65s-6.52-3.845-10.305-3.85H29.297c-.028-.374-.047-.75-.047-1.125V9zm-4.275 9H40.5c2.593.003 5.105.9 7.113 2.54 2.008 1.639 3.39 3.92 3.912 6.46H36c-2.593-.003-5.105-.9-7.113-2.54-2.008-1.639-3.39-3.92-3.912-6.46zM36 61.98v-1.956l18-7.2V67.5h4.5V52.823l18 7.2v1.956L62.45 74.273c-1.641 1.436-3.747 2.227-5.927 2.227h-.546c-2.18 0-4.286-.791-5.926-2.227L36 61.98zm33.605 23.327L56.25 91.984l-13.355-6.677 2.588-9.052 1.605 1.406c2.461 2.153 5.62 3.34 8.889 3.339h.546c3.27 0 6.429-1.187 8.89-3.34l1.606-1.406 2.586 9.053zM38.728 99.826l1.362-10.891 10.89 5.445-12.252 5.446zm17.522 12.143l-6.14-12.278 6.14-2.728 6.14 2.728-6.14 12.278zm5.27-17.589l10.892-5.445 1.361 10.891-12.252-5.446z"/>
        <path fill="#000" d="M67.5 38.25H63V45h4.5v-6.75zM49.5 38.25H45V45h4.5v-6.75zM58.5 126H54v4.5h4.5V126z"/>
    </g>
    <defs>
        <clipPath id="prefix__clip0">
            <path fill="#fff" d="M0 0H118.523V139.5H0z"/>
        </clipPath>
    </defs>
</svg>
