<svg xmlns="http://www.w3.org/2000/svg" width="144" height="144" fill="none" viewBox="0 0 144 144">
    <path fill="#BEC3FF" d="M126.152 35.912c-21.907-41.137-70.885-22.346-81.81-7.092-10.205 13.346-14.521 51.175 0 67.344 14.52 16.169 40.182 12.33 51.199 8.389 22.394-7.627 50.69-30.94 30.611-68.641z"/>
    <path fill="#000" d="M72 119.25c-4.64.005-9.255-.674-13.697-2.015l-1.85-61.097c1.83-.316 3.49-1.268 4.688-2.688 1.198-1.42 1.857-3.217 1.859-5.075V11.25h-4.5v22.5h-6.75v-22.5h-4.5v22.5H40.5v-22.5H36v23.574c-1.527 1.477-2.963 3.046-4.299 4.699.297-1.91.445-3.84.442-5.773 0-12.617-6.071-22.5-13.822-22.5-5.473 0-10.276 4.937-12.533 12.886l4.33 1.229c1.658-5.841 4.878-9.615 8.204-9.615 4.501 0 9.32 7.233 9.32 18s-4.819 18-9.32 18C13.82 51.75 9 44.517 9 33.75c0-1.408.089-2.814.268-4.21l-4.463-.58C4.601 30.55 4.5 32.15 4.5 33.75c0 8.306 2.631 15.427 6.64 19.324l-2.125 70.164c-.01.169-.015.34-.015.512 0 2.387.948 4.676 2.636 6.364 1.688 1.688 3.977 2.636 6.364 2.636s4.676-.948 6.364-2.636c1.688-1.688 2.636-3.977 2.636-6.364 0-.172-.005-.342-.015-.512l-.823-27.19c2.198 4.18 4.958 8.039 8.202 11.471l3.272-3.089c-6.02-6.359-10.145-14.271-11.913-22.847l-.493-16.27c1.276-8.822 5.008-17.108 10.77-23.91v6.972c0 1.415.383 2.803 1.105 4.02.723 1.216 1.76 2.216 3.001 2.893-2.915 5.573-4.322 11.812-4.08 18.097.243 6.285 2.126 12.397 5.462 17.729l-.51 16.819 4.498.136 1.57-51.819h4.908l2.035 67.156c0 .022.001.045.003.067.005.092.008.184.008.277 0 1.193-.474 2.338-1.318 3.182-.844.844-1.989 1.318-3.182 1.318-1.194 0-2.338-.474-3.182-1.318-.844-.844-1.318-1.989-1.318-3.182 0-.093.003-.185.008-.277l.003-.067.329-10.838-4.498-.136-.328 10.806c-.009.169-.014.34-.014.512 0 2.387.948 4.676 2.636 6.364 1.688 1.688 3.977 2.636 6.364 2.636s4.676-.948 6.364-2.636c1.688-1.688 2.636-3.977 2.636-6.364 0-.172-.005-.342-.014-.512l-.04-1.282c11.697 3.155 24.127 2.126 35.144-2.911l-1.88-4.089c-6.18 2.845-12.906 4.311-19.71 4.294zm-49.511 4.156c0 .022.001.045.003.067.005.092.008.184.008.277 0 1.193-.474 2.338-1.318 3.182-.844.844-1.988 1.318-3.182 1.318s-2.338-.474-3.182-1.318c-.844-.844-1.318-1.989-1.318-3.182 0-.093.003-.185.008-.277 0-.022.003-.045.004-.067l2.048-67.587c1.582.506 3.272.568 4.887.178l.272 8.989c-.766 5.697-.59 11.48.52 17.12l1.25 41.3zM58.5 48.375c-.001.895-.357 1.753-.99 2.385-.632.633-1.49.989-2.385.99h-11.25c-.895-.001-1.753-.357-2.385-.99-.633-.632-.989-1.49-.99-2.385V38.25h18v10.125zM40.5 72c-.002-3.676.639-7.323 1.894-10.778l-.598 19.741c-.86-2.91-1.297-5.928-1.296-8.963zM72 24.75c9.114.01 18.031 2.649 25.682 7.602 7.65 4.952 13.708 12.008 17.447 20.32l4.107-1.843c-4.095-9.103-10.73-16.83-19.109-22.254C91.747 23.15 81.982 20.26 72 20.25c-1.566 0-3.148.07-4.702.21l.404 4.483c1.42-.128 2.866-.193 4.298-.193z"/>
    <path fill="#000" d="M72 40.5c4.894-.019 9.725 1.111 14.102 3.3 4.378 2.189 8.18 5.375 11.102 9.301l3.598-2.702c-3.34-4.487-7.684-8.128-12.687-10.629C83.113 37.27 77.593 35.978 72 36c-1.604 0-3.207.106-4.797.317l.594 4.46c1.394-.184 2.798-.277 4.203-.277zM72 108c6.796.007 13.455-1.915 19.202-5.543l-2.404-3.805c-3.712 2.334-7.87 3.87-12.209 4.51-4.338.64-8.762.369-12.99-.794l-1.198 4.338c3.127.861 6.356 1.296 9.599 1.294zM137.25 56.25h-45c-.597 0-1.169.237-1.591.659-.422.422-.659.994-.659 1.591V63c0 .1.007.199.02.297l8.674 65.06c.166 1.214.765 2.328 1.687 3.136.922.807 2.106 1.254 3.331 1.257h24.244c1.257.004 2.469-.462 3.401-1.305.931-.843 1.515-2.003 1.637-3.254l4.245-42.466-4.478-.45-4.247 42.469c-.013.139-.078.267-.182.361-.103.094-.238.145-.377.145h-24.243c-.136 0-.267-.05-.37-.14-.102-.089-.169-.213-.187-.348L96.019 74.25h37.845l-.653 6.525 4.478.448 1.8-18c.008-.075.011-.15.011-.225V58.5c0-.295-.058-.588-.171-.861-.113-.273-.279-.521-.488-.73-.209-.209-.457-.375-.73-.488-.273-.113-.566-.171-.861-.171zm-41.83 13.5l-.92-6.9v-2.1H135v2.138l-.686 6.862H95.42zM66.42 90.612l4.667 2.552 2.551 4.666c.194.354.48.65.827.856.347.205.744.314 1.147.314.404 0 .8-.109 1.148-.314.347-.206.633-.502.827-.856l2.552-4.666 4.666-2.552c.354-.194.65-.48.856-.827.206-.347.314-.743.314-1.147s-.108-.8-.314-1.148c-.206-.347-.502-.633-.856-.826l-4.666-2.552-2.552-4.667c-.194-.354-.48-.65-.827-.855-.347-.207-.744-.315-1.148-.315-.403 0-.8.108-1.147.314-.347.206-.633.502-.827.856l-2.551 4.667-4.667 2.552c-.354.193-.65.479-.855.826-.206.348-.315.744-.315 1.148 0 .403.109.8.315 1.147.206.347.501.633.855.827zm7.404-2.869c.378-.207.688-.517.895-.895l.894-1.635.894 1.635c.206.378.517.688.894.895l1.635.894-1.635.894c-.377.206-.688.517-.894.895l-.895 1.635-.893-1.635c-.207-.378-.517-.689-.895-.895l-1.635-.894 1.635-.894zM113.195 29.862l4.666 2.552 2.552 4.666c.194.354.479.65.827.856.347.206.743.314 1.147.314s.8-.108 1.148-.314c.347-.206.633-.502.826-.856l2.552-4.666 4.666-2.552c.355-.194.65-.48.856-.827.206-.347.315-.744.315-1.147 0-.404-.109-.8-.315-1.148-.206-.347-.501-.633-.856-.826l-4.666-2.553-2.552-4.666c-.193-.354-.479-.65-.826-.856-.348-.205-.744-.314-1.148-.314-.404 0-.8.109-1.147.314-.348.206-.633.502-.827.856l-2.552 4.666-4.666 2.553c-.354.193-.65.479-.856.826-.206.348-.315.744-.315 1.148 0 .403.109.8.315 1.147.206.348.502.633.856.827zm7.403-2.869c.378-.207.689-.517.895-.895l.894-1.635.894 1.635c.207.378.517.688.895.895l1.635.894-1.635.894c-.378.207-.688.517-.895.895l-.894 1.635-.894-1.635c-.206-.378-.517-.688-.895-.895l-1.634-.894 1.634-.894z"/>
    <path fill="#000" d="M123.766 80.737l-4.5 38.25 4.469.526 4.5-38.25-4.469-.526z"/>
</svg>
