<svg xmlns="http://www.w3.org/2000/svg" width="144" height="144" fill="none" viewBox="0 0 147 119">
    <g clip-path="url(#prefix__clip0)">
        <ellipse cx="30.5" cy="15" fill="#BEC3FF" rx="11.5" ry="12"/>
        <path fill="#BEC3FF" d="M9 57.5c-.8 8.8 6 9 9.5 8v40c0 4.8 3.334 6.667 5 7 2.834.333 9.5.8 13.5 0s5.334-5 5.5-7v-40H45c5.2 0 6.5-3 6.5-4.5V38c.8-6.8-4-8.167-6.5-8H18.5C10.9 28.8 9 33.5 9 36v21.5z"/>
        <ellipse cx="125.565" cy="13.5" fill="#BEC3FF" rx="11.5" ry="13.5"/>
        <path fill="#BEC3FF" d="M104.065 57.5c-.8 8.8 6 9 9.5 8v40c0 4.8 3.333 6.667 5 7 2.833.333 9.5.8 13.5 0s5.333-5 5.5-7v-40h2.5c5.2 0 6.5-3 6.5-4.5V38c.8-6.8-4-8.167-6.5-8h-26.5c-7.6-1.2-9.5 3.5-9.5 6v21.5z"/>
        <path fill="#000" d="M48 64.6v-24c-.002-2.227-.888-4.362-2.463-5.937-1.575-1.575-3.71-2.46-5.937-2.463H8.4c-2.227.002-4.362.888-5.937 2.463C.888 36.238.003 38.373 0 40.6v6h4.8v-6c.001-.955.38-1.87 1.056-2.545C6.53 37.38 7.446 37.001 8.4 37h31.2c.954 0 1.87.38 2.544 1.055.675.675 1.055 1.59 1.056 2.545v24c-.001.954-.38 1.87-1.056 2.544-.675.675-1.59 1.055-2.544 1.056h-1.2V46.6h-4.8v63.6c-.001.954-.38 1.869-1.056 2.544-.674.675-1.59 1.055-2.544 1.056h-3.6V73h-4.8v40.8H18c-.954-.001-1.87-.381-2.544-1.056-.675-.675-1.055-1.59-1.056-2.544V46.6H9.6v21.6H8.4c-.954-.001-1.87-.38-2.544-1.056C5.18 66.47 4.8 65.554 4.8 64.6V51.4H0v13.2c.003 2.227.888 4.362 2.463 5.937C4.038 72.112 6.173 72.997 8.4 73h1.2v37.2c.003 2.227.888 4.362 2.463 5.937 1.575 1.574 3.71 2.46 5.937 2.463h12c2.227-.003 4.362-.889 5.937-2.463 1.575-1.575 2.46-3.71 2.463-5.937V73h1.2c2.227-.003 4.362-.888 5.937-2.463 1.575-1.575 2.46-3.71 2.463-5.937zM135.6 32.2h-31.2c-2.227.002-4.362.888-5.937 2.463-1.575 1.575-2.46 3.71-2.463 5.937v24c.002 2.227.888 4.362 2.463 5.937 1.575 1.575 3.71 2.46 5.937 2.463h1.2v37.2c.003 2.227.888 4.362 2.463 5.937 1.575 1.574 3.71 2.46 5.937 2.463h12c2.227-.003 4.362-.889 5.937-2.463 1.575-1.575 2.46-3.71 2.463-5.937V99.4h-4.8v10.8c-.001.954-.381 1.869-1.056 2.544-.674.675-1.59 1.055-2.544 1.056h-3.6V73h-4.8v40.8H114c-.954-.001-1.87-.381-2.544-1.056-.675-.675-1.055-1.59-1.056-2.544V46.6h-4.8v21.6h-1.2c-.954-.001-1.87-.38-2.544-1.056-.675-.675-1.055-1.59-1.056-2.544v-24c.001-.955.381-1.87 1.056-2.545.674-.675 1.59-1.054 2.544-1.055h31.2c.954 0 1.87.38 2.544 1.055.675.675 1.055 1.59 1.056 2.545v24c-.001.954-.381 1.87-1.056 2.544-.674.675-1.59 1.055-2.544 1.056h-1.2V46.6h-4.8v48h4.8V73h1.2c2.227-.003 4.362-.888 5.937-2.463 1.575-1.575 2.46-3.71 2.463-5.937v-24c-.003-2.227-.888-4.362-2.463-5.937-1.575-1.575-3.71-2.46-5.937-2.463z"/>
        <path fill="#000" d="M122.4 41.8h-4.8V49h4.8v-7.2zM122.4 53.8h-4.8v4.8h4.8v-4.8zM23.4 29.8h1.2c3.022-.004 5.92-1.206 8.057-3.343 2.137-2.137 3.34-5.035 3.343-8.057v-3.6c-.003-3.023-1.206-5.92-3.343-8.057C30.52 4.605 27.622 3.403 24.6 3.4h-1.2c-3.022.003-5.92 1.205-8.057 3.343C13.206 8.88 12.003 11.777 12 14.8v3.6c.003 3.022 1.206 5.92 3.343 8.057 2.137 2.137 5.035 3.34 8.057 3.343zm-6.6-15c.002-1.75.698-3.428 1.935-4.665C19.973 8.898 21.65 8.202 23.4 8.2h1.2c1.75.002 3.427.698 4.665 1.935 1.237 1.237 1.933 2.915 1.935 4.665v3.6c-.002 1.75-.698 3.427-1.935 4.665C28.027 24.301 26.35 24.997 24.6 25h-1.2c-1.75-.002-3.427-.698-4.665-1.936-1.237-1.237-1.933-2.914-1.935-4.664v-3.6zM26.4 41.8h-4.8V49h4.8v-7.2zM26.4 53.8h-4.8v4.8h4.8v-4.8zM96 111.4H48V109h-4.8v9.6H48v-2.4h48v2.4h4.8V109H96v2.4zM119.4 29.8h1.2c3.022-.004 5.92-1.206 8.057-3.343 2.137-2.137 3.34-5.035 3.343-8.057v-3.6c-.003-3.023-1.206-5.92-3.343-8.057-2.137-2.138-5.035-3.34-8.057-3.343h-1.2c-3.022.003-5.92 1.205-8.057 3.343-2.137 2.137-3.34 5.034-3.343 8.057v3.6c.003 3.022 1.206 5.92 3.343 8.057 2.137 2.137 5.035 3.34 8.057 3.343zm-6.6-15c.002-1.75.698-3.428 1.935-4.665 1.238-1.237 2.915-1.933 4.665-1.935h1.2c1.75.002 3.427.698 4.665 1.935 1.237 1.237 1.933 2.915 1.935 4.665v3.6c-.002 1.75-.698 3.427-1.935 4.665-1.238 1.237-2.915 1.933-4.665 1.935h-1.2c-1.75-.002-3.427-.698-4.665-1.936-1.237-1.237-1.933-2.914-1.935-4.664v-3.6z"/>
    </g>
    <defs>
        <clipPath id="prefix__clip0">
            <path fill="#fff" d="M0 0H146.654V118.6H0z"/>
        </clipPath>
    </defs>
</svg>
