<svg width="150" height="137" viewBox="0 0 150 137" fill="none" xmlns="http://www.w3.org/2000/svg">
<g clip-path="url(#clip0)">
<path d="M23.7829 78.0079L0 50.9905L71.1584 0L142.317 50.9905L118.153 78.0079H23.7829Z" fill="#224BDD"/>
<path d="M23.7829 78.0079L0 50.9905L71.1584 0L142.317 50.9905L118.153 78.0079H23.7829Z" fill="#514ABF"/>
<path d="M138.892 54.4153H0V115.109H138.892V54.4153Z" fill="#224BDD"/>
<path d="M138.892 54.4153H0V115.109H138.892V54.4153Z" fill="url(#paint0_linear)"/>
<path d="M142.317 136.799H0V50.9905L71.1584 93.99L142.317 50.9905V136.799Z" fill="#224BDD"/>
<path d="M124.165 22.2261L109.071 10.6528L69.0894 62.7948L46.8836 45.7678L35.3101 60.8612L65.0605 83.6393L72.6897 89.3568L124.165 22.2261Z" fill="#3AD29F"/>
<path d="M0.599046 31.7515L0.0332031 32.0278L0.0982731 31.9121L0.0486144 31.9281L0.118251 31.8765L7.73391 18.3237L11.6269 21.643L14.9666 24.735L14.0076 25.2032L15.0857 27.1047L0.599046 31.7515Z" fill="url(#paint1_linear)"/>
<path d="M11.2414 21.9976L14.2939 24.828L0.458008 31.7066L7.821 22.2695L11.2414 21.9976Z" fill="#224BDD"/>
<path opacity="0.2" d="M11.2414 21.9976L14.2939 24.828L0.458008 31.7066L7.821 22.2695L11.2414 21.9976Z" fill="black"/>
<path d="M7.68078 18.9616L0.458008 31.7066L11.2414 21.9977L7.68078 18.9616Z" fill="#224BDD"/>
<path d="M14.3828 27.0193L0.472656 31.6141L12.1006 22.9341L14.3828 27.0193Z" fill="#224BDD"/>
<path d="M130.701 7.36888L127.654 12.6523L149.998 16.2907L135.607 6.26897L130.701 7.36888Z" fill="#224BDD"/>
<path opacity="0.2" d="M130.701 7.36888L127.654 12.6523L149.998 16.2907L135.607 6.26897L130.701 7.36888Z" fill="black"/>
<path d="M134.374 1.57785L150.001 16.2907L130.704 7.36889L134.374 1.57785Z" fill="#224BDD"/>
<path d="M128.478 15.7578L149.937 16.1678L129.904 9.05195L128.478 15.7578Z" fill="#224BDD"/>
</g>
<defs>
<linearGradient id="paint0_linear" x1="69.446" y1="115.109" x2="69.446" y2="54.4153" gradientUnits="userSpaceOnUse">
<stop stop-opacity="0.12"/>
<stop offset="0.55135" stop-opacity="0.09"/>
<stop offset="1" stop-opacity="0.02"/>
</linearGradient>
<linearGradient id="paint1_linear" x1="11.3232" y1="31.519" x2="2.73077" y2="24.1929" gradientUnits="userSpaceOnUse">
<stop stop-color="#808080" stop-opacity="0.25"/>
<stop offset="0.53514" stop-color="#808080" stop-opacity="0.12"/>
<stop offset="1" stop-color="#808080" stop-opacity="0.1"/>
</linearGradient>
<clipPath id="clip0">
<rect width="150" height="136.799" fill="white"/>
</clipPath>
</defs>
</svg>
