<svg xmlns="http://www.w3.org/2000/svg" width="144" height="144" fill="none" viewBox="0 0 121 150">
    <g clip-path="url(#prefix__clip0)">
        <path fill="#BEC3FF" d="M18 55.5V137h56.5V55.5L61.5 40 53 25V10l17-6-1-4H25.5v10h13v15L18 55.5z"/>
        <path fill="#000" d="M5.143 87.1h56.57v28.8h5.144V72.7h-5.143v9.6H5.143V65.585c-.002-.473.098-.941.292-1.378.193-.437.478-.834.838-1.167l10.221-9.54h33.87l10.22 9.54c.36.333.645.73.838 1.167.194.437.293.905.292 1.378V67.9h5.143v-2.315c.003-1.103-.228-2.197-.68-3.216-.453-1.02-1.118-1.946-1.956-2.724L54 50.105V47.5c-.002-1.657-.528-3.277-1.513-4.656-.984-1.379-2.383-2.456-4.02-3.096l-2.258-8.43c-.14-.519-.46-.98-.912-1.31-.452-.329-1.01-.508-1.583-.508v-7.79l16.136-4.302c.537-.144 1.01-.447 1.346-.863.336-.416.518-.924.518-1.445h8.432l1.985 5.559 4.88-1.518-2.572-7.2c-.17-.478-.498-.894-.936-1.188-.438-.295-.964-.453-1.503-.453H61.678c-.16-1.32-.834-2.538-1.894-3.423-1.06-.885-2.433-1.375-3.856-1.377H16.071c-1.534.002-3.004.571-4.089 1.583-1.084 1.013-1.694 2.385-1.696 3.817v4.569c-.004 1.08.34 2.136.99 3.03.648.895 1.57 1.586 2.647 1.984l9.22 3.442V29.5c-.574 0-1.13.179-1.583.508-.452.33-.773.79-.912 1.31l-2.258 8.43c-1.638.64-3.036 1.717-4.02 3.096-.985 1.38-1.511 2.999-1.513 4.656v2.606l-10.221 9.54c-.839.778-1.503 1.704-1.956 2.723-.452 1.02-.683 2.113-.68 3.217V94.3h5.143v-7.2zM25.15 34.3h16.556l1.286 4.8H23.865l1.285-4.8zm1.52-14.228l-10.837-4.046c-.12-.044-.222-.121-.294-.22-.072-.1-.11-.217-.11-.337V10.9c0-.16.067-.312.188-.424.12-.113.284-.176.454-.176h39.857c.17 0 .334.063.455.176.12.112.188.265.188.424v2.39l-16.136 4.302c-.537.144-1.01.447-1.346.863-.336.416-.518.924-.518 1.445v9.6H28.286v-7.2c0-.48-.154-.948-.443-1.346-.288-.397-.697-.704-1.174-.882zM18 47.5c.001-.955.408-1.87 1.13-2.544.724-.675 1.704-1.055 2.727-1.056H45c1.022.001 2.003.38 2.726 1.056.723.674 1.13 1.59 1.13 2.544v1.2H18v-1.2z"/>
        <path fill="#000" d="M28.285 120.7h10.286c.682 0 1.336-.253 1.818-.703.482-.45.753-1.06.753-1.697v-4.8h5.143c.682 0 1.336-.253 1.819-.703.482-.45.753-1.06.753-1.697v-9.6c0-.637-.271-1.247-.754-1.697-.482-.45-1.136-.703-1.818-.703h-5.142v-4.8c0-.636-.272-1.247-.754-1.697-.482-.45-1.136-.703-1.818-.703H28.285c-.682 0-1.336.253-1.818.703-.482.45-.753 1.06-.753 1.697v4.8h-5.143c-.682 0-1.336.253-1.818.703-.482.45-.753 1.06-.753 1.697v9.6c0 .637.27 1.247.753 1.697.482.45 1.136.703 1.818.703h5.143v4.8c0 .637.27 1.247.753 1.697.482.45 1.136.703 1.818.703zm-5.142-12v-4.8h5.142c.682 0 1.336-.253 1.819-.703.482-.45.753-1.06.753-1.697v-4.8H36v4.8c0 .637.27 1.247.753 1.697.482.45 1.136.703 1.818.703h5.143v4.8H38.57c-.682 0-1.336.253-1.818.703-.483.45-.753 1.06-.753 1.697v4.8h-5.143v-4.8c0-.637-.271-1.247-.753-1.697-.483-.45-1.137-.703-1.819-.703h-5.142zM79.683 78.442c-3.434 5.524-4.899 9.204-4.899 12.304-.007 3.746 1.56 7.345 4.363 10.026l3.69-3.344c-1.87-1.787-2.914-4.185-2.91-6.682 0-2.136 1.336-5.28 4.204-9.896 1.95-3.137 3.945-5.84 3.965-5.867l2.116-2.86 2.117 2.86c.02.027 2.007 2.717 3.965 5.867 1.786 2.874 2.968 5.163 3.613 6.998l4.885-1.496c-.758-2.157-2.083-4.744-4.05-7.91-2.07-3.333-4.165-6.165-4.183-6.189l-4.231-5.717c-.237-.32-.553-.58-.921-.761-.369-.18-.778-.275-1.195-.275-.416 0-.826.094-1.194.275-.369.18-.685.441-.921.76l-4.232 5.719c-.02.028-2.113 2.859-4.182 6.188zM75.239 31.229l-2.54 3.432c-.052.07-1.3 1.762-2.551 3.775-2.158 3.471-3.078 5.823-3.078 7.864 0 2.546 1.083 4.988 3.012 6.788 1.93 1.8 4.545 2.812 7.273 2.812 2.728 0 5.344-1.011 7.273-2.812 1.93-1.8 3.013-4.242 3.013-6.788 0-2.04-.92-4.393-3.078-7.864-1.273-2.049-2.545-3.766-2.553-3.777l-2.54-3.43c-.236-.32-.552-.581-.92-.761-.369-.181-.779-.275-1.195-.275-.416 0-.826.094-1.195.274-.368.18-.684.442-.92.762h-.001zm2.116 5.587l.423.572c.012.016 1.185 1.605 2.336 3.456 1.604 2.58 2.383 4.366 2.383 5.456 0 1.273-.541 2.494-1.506 3.394-.964.9-2.272 1.406-3.636 1.406-1.364 0-2.672-.506-3.637-1.406-.964-.9-1.506-2.12-1.506-3.394 0-1.09.78-2.875 2.383-5.456 1.146-1.842 2.325-3.441 2.336-3.456l.424-.572zM124.794 116.18l-18 8.91 2.411 4.24 17.433-8.63h17.36v-4.8h-17.999c-.421 0-.834.096-1.205.28z"/>
        <path fill="#000" d="M126.116 91.9l-15.344-1.302c-4.379-.363-8.788.228-12.88 1.726-4.093 1.498-7.757 3.861-10.705 6.905l-8 8.296c-1.698 1.761-2.8 3.952-3.167 6.296-.367 2.345.019 4.738 1.107 6.879H54c-2.357 0-4.69.437-6.864 1.286-2.174.849-4.146 2.092-5.801 3.659-1.655 1.566-2.96 3.423-3.84 5.464-.878 2.041-1.314 4.225-1.282 6.424.01.631.285 1.233.766 1.676.481.443 1.13.691 1.806.691h22.928v1.2c0 .243-.026.485-.077.723-.18.812-.654 1.541-1.343 2.065-.688.524-1.549.811-2.437.812H9c-1.023-.001-2.003-.381-2.726-1.056-.723-.674-1.13-1.59-1.131-2.544v-10.8h28.285v-4.8H5.143V99.1H0v42c.003 2.227.952 4.362 2.639 5.937 1.687 1.575 3.975 2.46 6.36 2.463h48.858c1.182.001 2.352-.216 3.445-.638 1.092-.422 2.084-1.041 2.92-1.821.836-.78 1.5-1.706 1.951-2.726.452-1.019.684-2.112.684-3.215v-1.2h20.357c.42 0 .833-.096 1.204-.28l15.643-7.743-2.411-4.241-15.076 7.464h-45c.552-2.7 2.095-5.135 4.363-6.888 2.268-1.752 5.12-2.711 8.065-2.712h28.27c.51 0 1.01-.139 1.435-.4l.006-.003 15.428-9.6c.563-.355.954-.903 1.085-1.526.131-.622-.006-1.268-.383-1.795-.377-.528-.963-.895-1.629-1.021-.666-.126-1.358-.001-1.926.348l-13.626 8.477c-1.115-1.334-1.691-2.991-1.628-4.682.064-1.691.764-3.306 1.976-4.564l8-8.295c2.412-2.49 5.41-4.423 8.758-5.648 3.349-1.225 6.956-1.708 10.538-1.411l15.461 1.312c.078.006.155.01.233.01h18V91.9h-17.884z"/>
    </g>
    <defs>
        <clipPath id="prefix__clip0">
            <path fill="#fff" d="M0 0H144V149.5H0z"/>
        </clipPath>
    </defs>
</svg>
