<svg xmlns="http://www.w3.org/2000/svg" width="24" height="24" fill="none" viewBox="0 0 24 24">
    <path fill="#fff" d="M0 0H24V24H0z"/>
    <path fill="#11215F" d="M16.7 3c-.714 0-1.422.141-2.081.418-.66.276-1.256.682-1.757 1.192l-.798.805-.797-.805c-.501-.51-1.099-.914-1.758-1.19-.659-.276-1.366-.418-2.08-.418-.715 0-1.422.142-2.081.418-.66.276-1.257.68-1.758 1.19C2.571 5.648 2 7.044 2 8.498c0 1.455.571 2.851 1.59 3.889l8.474 8.582 8.474-8.582c1.02-1.038 1.59-2.434 1.59-3.889 0-1.454-.57-2.85-1.59-3.888-.5-.51-1.098-.915-1.757-1.19-.659-.277-1.366-.42-2.08-.42z"/>
</svg>
