<svg xmlns="http://www.w3.org/2000/svg" width="144" height="144" fill="none" viewBox="0 0 124 140">
    <g clip-path="url(#prefix__clip0)">
        <path fill="#BEC3FF" d="M73.5 93c-2.8 2.8-21.167-1.167-30-3.5l-2.5-22c-11.6-9.2-10.833-17.938-9-21.157 2.8-10.525 11.714-4.385 15.821 0C54.271 33.662 65.247 41.427 70 47c11.6-2.8 15.833 10.167 16.5 17l-13 8.5c1.167 5.667 2.8 17.7 0 20.5z"/>
        <path stroke="#000" stroke-width="4.021" d="M25.805 66.181h0l-.046-.067-.05-.063c-2.423-3.048-3.597-6.35-3.597-9.963 0-3.538 1.107-6.119 3.172-7.989 2.038-1.846 4.49-2.521 7.6-1.922 1.796.374 3.622 1.242 5.482 2.687l1.616 1.256 1.227-1.638c1.104-1.474 2.332-2.398 3.672-2.89 1.346-.493 2.948-.603 4.88-.216 3.784.76 6.904 3.06 9.356 7.198l.917 1.547 1.64-.74c1.568-.708 3.246-.896 5.101-.528 3.03.602 5.721 2.33 8.076 5.395 2.349 3.055 3.484 6.323 3.484 9.855 0 .57-.026 1.007-.068 1.328-.03.227-.061.354-.077.408-.014.015-.037.038-.071.067-.118.103-.323.247-.655.42-.9.47-1.677.94-2.269 1.41l-.087.069-.043.042-.089.064c-.108.074-.268.176-.49.31-.442.265-1.066.615-1.882 1.053-1.786.958-3.363 2.054-4.713 3.295-1.486 1.366-2.466 3.045-2.466 5.018V98.67c-.007.02-.03.067-.093.146-.142.177-.445.45-1.028.775-1.086.606-2.764 1.077-5.178 1.287-2.26.197-5.047-.091-8.407-.946l-.01-.003-.009-.002c-5.806-1.42-10.024-2.662-12.716-3.723-1.316-.518-2.137-1.001-2.598-1.4-.266-.231-.345-.372-.365-.422V77.315c0-1.937-.946-3.673-2.36-5.18-1.3-1.388-2.784-2.692-4.441-3.914-.76-.56-1.343-1.024-1.767-1.395-.21-.185-.37-.337-.484-.456-.056-.059-.097-.105-.126-.14-.026-.031-.038-.047-.038-.049zm39.623 32.477l-.002.012c0-.008.001-.012.002-.012zm-30.413-4.297c.001 0 .003.005.005.017-.005-.012-.005-.017-.005-.017z"/>
        <path stroke="#000" stroke-width="4.021" d="M14.907 4.438h84.437c5.361 0 16.084 3.216 16.084 16.083v84.437c0 5.361-7.238 15.28-20.105 12.063"/>
        <path fill="#000" fill-rule="evenodd" d="M14.906 2.427c-3.156 0-6.68 1.176-9.428 3.792C2.692 8.871.833 12.878.833 18.278V105.14c-.001 3.37-.002 7.86 2.284 11.783 2.412 4.141 7.075 7.236 15.445 8.499l44.154 9.643.01.002 17.876 4.007c2.673.743 6.776 1.009 10.328-.878 3.775-2.006 6.403-6.15 6.403-13.134V48.667h-4.021v76.396c0 5.881-2.115 8.439-4.269 9.583-2.352 1.25-5.33 1.13-7.403.544l-.053-.015-.054-.012-17.938-4.021-.01-.002-44.23-9.659-.065-.015-.066-.01c-7.671-1.146-11.031-3.807-12.633-6.556-1.694-2.908-1.737-6.368-1.737-9.942v-86.68c0-4.42 1.49-7.333 3.396-9.146 1.885-1.795 4.302-2.634 6.458-2.682l65.974 13.796.106.022.108.01c6.733.668 9.554 2.994 10.909 5.607 1.493 2.877 1.507 6.557 1.507 10.72v4.02h4.02v-4.02l.001-.401c.002-3.804.005-8.385-1.959-12.171-2.161-4.166-6.424-6.974-13.973-7.745L15.317 2.47l-.203-.043h-.208z" clip-rule="evenodd"/>
    </g>
    <defs>
        <clipPath id="prefix__clip0">
            <path fill="#fff" d="M0 0H122.543V139.219H0z" transform="translate(.833 .417)"/>
        </clipPath>
    </defs>
</svg>
