<svg xmlns="http://www.w3.org/2000/svg" width="32" height="32" fill="none" viewBox="0 0 32 32">
    <path fill="#11215F" d="M16 2c-2.769 0-5.476.821-7.778 2.36-2.302 1.538-4.097 3.724-5.156 6.282-1.06 2.559-1.337 5.373-.797 8.09.54 2.715 1.874 5.21 3.832 7.168 1.957 1.957 4.452 3.29 7.168 3.831 2.716.54 5.53.263 8.089-.797 2.558-1.06 4.744-2.854 6.283-5.156C29.179 21.476 30 18.768 30 16c0-3.713-1.475-7.274-4.1-9.9C23.273 3.476 19.712 2 16 2zm8 22.919v-.608c.028-1.364-.48-2.684-1.415-3.677-.935-.993-2.222-1.58-3.585-1.634h-6c-1.362.055-2.647.642-3.58 1.635-.934.993-1.44 2.313-1.41 3.675 0 .011-.01.022-.01.033v.585c-1.814-1.62-3.094-3.751-3.67-6.114-.575-2.363-.42-4.844.446-7.117C5.642 9.425 7.178 7.47 9.18 6.09c2.002-1.38 4.376-2.12 6.808-2.122 2.432-.001 4.806.735 6.81 2.113 2.004 1.378 3.542 3.332 4.41 5.604.869 2.27 1.027 4.752.455 7.115-.573 2.364-1.85 4.497-3.662 6.119v.001z"/>
    <path fill="#11215F" d="M16 7c-.989 0-1.956.293-2.778.843-.822.55-1.463 1.33-1.841 2.244-.379.913-.478 1.918-.285 2.889.193.97.67 1.86 1.368 2.56.7.699 1.59 1.175 2.56 1.368.97.193 1.976.094 2.89-.285.913-.378 1.694-1.019 2.243-1.841.55-.822.843-1.79.843-2.778 0-1.326-.527-2.598-1.465-3.536C18.598 7.527 17.326 7 16 7z"/>
</svg>
